# xmcd
#
# Track frame offsets: 
#        150
#        17024
#        46889
#        62790
#        76320
#        107131
#        120970
#        135983
#        146679
#        159219
#        167204
#        182094
#        204128
#        214405
#        233333
#        248886
#
# Disc length: 3483 seconds
#
# Revision: 1
# Processed by: cddbd v1.5.2PL0 Copyright (c) Steve Scherf et al.
# Submitted via: ExactAudioCopyFreeDBPlugin 1.0
#
DISCID=cb0d9910
DTITLE=David Dondero - Spider West Myshkin And A City Bus
DYEAR=2000
DGENRE=Blues
TTITLE0=Motion Picture Song
TTITLE1=Ode to a 1973 Chevy Open Road
TTITLE2=Rubber Tree Cane
TTITLE3=Maybe Seperation Makes Us Stronger
TTITLE4=I Had To Get Back East
TTITLE5=Boulevard f Broken Vs. Busted Dreams, Shattered Will
TTITLE6=Pity Party
TTITLE7=Halfway House
TTITLE8=Michael Raines
TTITLE9=Me 1st At The Expense Of Everybody Else
TTITLE10=Sensitivity And Lynching
TTITLE11=Jackson Crosses
TTITLE12=Where The River Let Out
TTITLE13=Vestige Gone
TTITLE14=Pre-Invasion Jitters
TTITLE15=Thank You For
EXTD=
EXTT0=
EXTT1=
EXTT2=
EXTT3=
EXTT4=
EXTT5=
EXTT6=
EXTT7=
EXTT8=
EXTT9=
EXTT10=
EXTT11=
EXTT12=
EXTT13=
EXTT14=
EXTT15=
PLAYORDER=
